<?xml version="1.0" standalone="no"?>
<!DOCTYPE svg PUBLIC "-//W3C//DTD SVG 20010904//EN"
 "http://www.w3.org/TR/2001/REC-SVG-20010904/DTD/svg10.dtd">
<svg version="1.0" xmlns="http://www.w3.org/2000/svg"
 width="469.000000pt" height="469.000000pt" viewBox="0 0 469.000000 469.000000"
 preserveAspectRatio="xMidYMid meet">

<g transform="translate(0.000000,469.000000) scale(0.100000,-0.100000)"
fill="#000000" stroke="none">
<path d="M1580 4334 c-238 -55 -467 -129 -653 -212 l-88 -39 -68 -109 c-319
-511 -504 -1036 -573 -1629 -14 -121 -18 -660 -5 -737 8 -46 8 -46 140 -136
252 -170 509 -305 769 -401 204 -76 182 -79 254 31 58 87 143 234 156 269 5
12 -14 25 -80 54 -103 46 -272 136 -272 145 0 9 76 70 87 70 4 0 63 -22 130
-50 229 -93 476 -156 710 -181 168 -17 516 -7 672 21 164 29 342 78 487 135
66 26 137 54 160 63 l41 16 41 -34 c23 -18 42 -37 42 -42 0 -9 -317 -168 -336
-168 -28 0 -24 -24 17 -98 66 -122 180 -292 195 -292 18 0 254 87 364 135 193
83 462 236 647 368 l72 52 8 65 c12 102 8 573 -6 700 -43 384 -138 753 -281
1085 -114 266 -327 641 -383 676 -58 35 -339 140 -490 184 -140 39 -337 85
-370 85 -7 0 -37 -51 -68 -115 l-54 -116 -60 6 c-33 3 -100 10 -150 15 -138
15 -467 12 -636 -6 -83 -8 -152 -14 -153 -12 -1 2 -26 54 -56 116 -62 130 -47
124 -210 86z m178 -1396 c125 -47 231 -194 254 -353 28 -197 -72 -400 -238
-481 -52 -25 -70 -29 -149 -29 -77 0 -98 4 -148 27 -182 85 -286 324 -232 533
66 257 287 387 513 303z m1368 21 c139 -25 251 -127 307 -278 29 -81 29 -243
-2 -326 -43 -119 -122 -209 -227 -257 -39 -18 -67 -23 -139 -23 -79 0 -97 4
-149 29 -168 82 -269 288 -239 486 28 181 158 333 313 366 71 16 67 16 136 3z"/>
</g>
</svg>
