<?xml version="1.0" standalone="no"?>
<!DOCTYPE svg PUBLIC "-//W3C//DTD SVG 20010904//EN"
 "http://www.w3.org/TR/2001/REC-SVG-20010904/DTD/svg10.dtd">
<svg version="1.0" xmlns="http://www.w3.org/2000/svg"
 width="150.000000pt" height="150.000000pt" viewBox="0 0 150.000000 150.000000"
 preserveAspectRatio="xMidYMid meet">

<g transform="translate(0.000000,150.000000) scale(0.100000,-0.100000)"
fill="#000000" stroke="none">
<path d="M305 1401 c-96 -12 -156 -54 -192 -136 -15 -36 -18 -85 -21 -445 -4
-478 3 -573 45 -634 16 -22 49 -52 73 -66 l45 -25 478 -3 c335 -2 490 1 520 9
55 15 131 89 146 144 6 22 11 61 11 86 l0 46 -50 5 c-111 11 -181 102 -188
246 -5 97 9 156 50 213 32 44 113 89 161 89 l27 0 0 136 c0 74 -5 155 -11 178
-14 57 -58 109 -116 138 -48 23 -49 23 -483 25 -239 0 -462 -2 -495 -6z m339
-489 c44 -103 88 -207 99 -231 l20 -45 97 230 97 229 109 2 c84 2 104 0 89 -8
-45 -25 -45 -29 -45 -340 0 -164 3 -305 6 -314 4 -9 18 -22 33 -28 23 -11 18
-12 -47 -15 -40 -2 -103 -2 -140 0 -62 3 -65 4 -39 15 15 7 30 18 32 25 3 8 4
137 3 288 l-3 275 -129 -302 c-70 -167 -132 -301 -136 -298 -5 3 -64 136 -132
296 l-123 291 -3 -267 c-2 -266 2 -305 33 -305 7 0 17 -4 20 -10 4 -6 -22 -10
-69 -10 -78 0 -94 8 -53 25 l22 10 3 305 c1 168 0 314 -2 326 -3 11 -16 26
-28 32 -18 8 1 11 92 11 l115 1 79 -188z"/>
<path d="M1364 889 c-28 -14 -53 -58 -63 -113 l-8 -46 58 0 59 0 0 85 c0 89
-3 94 -46 74z"/>
<path d="M1294 658 c10 -59 45 -118 84 -141 l32 -19 0 101 0 101 -61 0 -62 0
7 -42z"/>
</g>
</svg>
