<?xml version="1.0" standalone="no"?>
<!DOCTYPE svg PUBLIC "-//W3C//DTD SVG 20010904//EN"
 "http://www.w3.org/TR/2001/REC-SVG-20010904/DTD/svg10.dtd">
<svg version="1.0" xmlns="http://www.w3.org/2000/svg"
 width="469.000000pt" height="469.000000pt" viewBox="0 0 469.000000 469.000000"
 preserveAspectRatio="xMidYMid meet">

<g transform="translate(0.000000,469.000000) scale(0.100000,-0.100000)"
fill="#000000" stroke="none">
<path d="M2115 4679 c-140 -14 -347 -57 -490 -104 -1360 -442 -2010 -1973
-1385 -3260 115 -237 252 -427 450 -625 308 -308 658 -508 1074 -615 209 -53
341 -69 581 -69 389 0 694 70 1041 240 854 417 1378 1346 1295 2294 -114 1307
-1261 2263 -2566 2139z m-13 -1406 c222 -296 409 -538 415 -538 6 0 236 242
512 538 l502 537 127 0 126 0 -50 -52 c-28 -29 -264 -282 -524 -563 -260 -280
-498 -535 -528 -566 l-54 -57 631 -841 631 -841 -456 2 -457 3 -413 554 c-228
305 -419 561 -426 568 -11 10 -110 -91 -543 -557 l-530 -570 -130 0 -129 0 35
38 c345 363 1169 1256 1167 1262 -2 5 -268 365 -593 801 -324 435 -594 798
-598 805 -7 12 61 14 436 14 l444 0 405 -537z"/>
<path d="M1202 3611 c2 -5 428 -574 948 -1265 l945 -1255 208 -1 c199 0 208 1
195 18 -7 10 -433 579 -947 1265 l-933 1247 -210 0 c-119 0 -208 -4 -206 -9z"/>
</g>
</svg>
